<?xml version="1.0" encoding="UTF-8" standalone="no"?>
<svg
   width="1024pt"
   height="1024pt"
   version="1.1"
   viewBox="0 0 1024 1024"
   id="svg10"
   sodipodi:docname="noun-shipping-container-116963-12B0FB.svg"
   xml:space="preserve"
   inkscape:export-filename="embedded-containers.webp"
   inkscape:export-xdpi="96"
   inkscape:export-ydpi="96"
   xmlns:inkscape="http://www.inkscape.org/namespaces/inkscape"
   xmlns:sodipodi="http://sodipodi.sourceforge.net/DTD/sodipodi-0.dtd"
   xmlns="http://www.w3.org/2000/svg"
   xmlns:svg="http://www.w3.org/2000/svg"><defs
     id="defs14" /><sodipodi:namedview
     id="namedview12"
     pagecolor="#ffffff"
     bordercolor="#000000"
     borderopacity="0.25"
     inkscape:showpageshadow="2"
     inkscape:pageopacity="1"
     inkscape:pagecheckerboard="0"
     inkscape:deskcolor="#d1d1d1"
     inkscape:document-units="pt"
     showgrid="false" /><g
     fill="#12b0fb"
     id="g8"
     transform="translate(-88.00795,-83.217895)"><path
       d="m 726.54,284 -3.3203,-0.60156 -3.3477,0.58594 -609.77,106.76 v 350.48 l 609.77,163.77 2.4805,0.66797 3.5859,0.96094 c 0.0391,0.14844 0.0781,0.28125 0.10547,0.41406 l 363.87003,-87.094 v -470.02 z M 719.872,898.09 116.762,736.12 V 396.35 l 603.11,-105.59 z m 363.36,-83.402 -356.69,85.375 v -609.29 l 356.69,64.719 z"
       id="path2" /><path
       d="m 913.57,842.03 9.8945,-2.3086 6.668,-1.5586 146.67,-34.199 v -140.57 -288.11 l -324.84001,-44.961 v 549.41 l 154.95,-36.148 z m 34.492,-477.84 122.05,16.895 v 19.895 l -122.05,-13.945 z m 0,29.547 122.05,13.945 v 94.172 l -122.05,-1.2812 z m 0,113.52 122.05,1.2812 v 21.922 h -122.05 z m 0,29.867 h 122.05 v 107.73 l -122.05,7.1211 z m 0,121.55 122.05,-7.1211 v 12.492 l -122.05,11.934 z m 0,24 122.05,-11.934 v 93.387 l -122.05,23.32 z m 0,111.56 122.05,-23.332 v 27.773 l -122.05,28.465 z m -17.934,3.4258 v -435.95 l 11.281,1.5586 v 465.41 l -11.281,2.625 z m -16.559,3.1758 v -441.42 l 9.8945,1.375 v 472.09 l -9.8945,2.3086 z m -154.96,-462.86 148.28,20.52 v 23.828 l -148.28,-16.945 z m 0,34.105 148.28,16.945 v 111.12 l -148.28,-1.5469 z m 0,133.2 148.28,1.5469 v 23.625 h -148.28 z m 0,31.84 h 148.28 v 117.27 l -148.28,8.6523 z m 0,132.61 148.28,-8.6523 v 18.906 l -148.28,14.492 z m 0,31.438 148.28,-14.48 v 108.61 l -148.28,28.348 z m 0,129.25 148.28,-28.332 v 34.641 l -148.28,34.586 z"
       id="path4" /><path
       d="m 508.08,824.48 169.73,44.961 4.1875,1.1211 v -543.07 l -30.492,4.4922 -6.668,0.98828 -39.773,5.8672 -6.668,0.98828 -41.973,6.1875 -6.668,0.98828 -39.188,5.7852 -6.668,0.98828 -35.215,5.1992 -6.668,0.98828 -40.375,5.9609 -6.668,0.98828 -43.973,6.4922 -6.668,0.98828 -32.426,4.7852 -6.668,0.98828 -32.613,4.8125 -6.668,0.98828 -26.426,3.8945 -6.668,0.98828 -28.641,4.2266 h -3.6406 v 0.54688 l -96.254,14.199 -2.8398,0.42578 v 311.88 l 382.41,101.31 z m 143.43,-485.75 23.828,-3.5195 v 526.67 l -23.828,-6.3203 z m -46.441,6.8516 39.773,-5.8672 v 514.11 l -39.773,-10.547 z m -48.652,7.1758 41.973,-6.1875 v 494.95 l -41.973,-11.121 z m -45.855,6.7578 39.188,-5.7852 v 474.88 l -39.188,-10.375 z m -370.32,360.63 -12.094,-3.1992 0.004,-301 12.094,-1.7852 z m 22.469,5.9453 -15.812,-4.1719 v -308.73 l 15.812,-2.332 z m 30.348,8.0547 -23.68,-6.2812 v -318 l 23.68,-3.4922 z m 27.52,7.2773 -20.852,-5.5352 -0.004,-330.5 20.852,-3.0781 z m 32.293,8.5469 -25.625,-6.7852 -0.004,-341.86 25.625,-3.7852 z m 33.094,8.7734 -26.426,-7 v -355.19 l 26.426,-3.8945 z m 39.293,10.414 -32.613,-8.6406 v -368.84 l 32.613,-4.8125 z m 39.078,10.348 -32.426,-8.6016 v -385.03 l 32.426,-4.7852 z m 50.641,13.414 -43.973,-11.641 v -401.16 l 43.973,-6.4805 z m 47.039,12.453 -40.375,-10.691 0.004,-422.04 40.375,-5.9453 z m 6.668,-439.67 35.215,-5.1992 v 455.96 l -35.215,-9.3203 z"
       id="path6" /></g><g
     id="g190"
     transform="matrix(0.11025226,-0.00665826,0,0.11025226,680.33498,453.79253)"
     style="fill:#808080"><path
       d="m 866.9,349.25 c 0,28.445 -23.059,51.508 -51.504,51.508 -28.441,0 -51.504,-23.062 -51.504,-51.508 0,-28.441 23.062,-51.504 51.504,-51.504 28.445,0 51.504,23.062 51.504,51.504"
       id="path186"
       style="fill:#808080" /><path
       d="m 208.21,882.74 c 0,83.629 68.039,151.66 151.67,151.66 h 480.25 c 83.629,0 151.67,-68.027 151.67,-151.66 v -17.988 l 148.2,0.004 v -60 H 991.79 V 629.996 H 1140 v -60 H 991.79 V 395.236 H 1140 v -60 H 991.79 v -17.988 c 0,-83.629 -68.039,-151.66 -151.67,-151.66 l -480.25,0.004 c -83.629,0 -151.67,68.027 -151.67,151.66 V 335.24 L 60,335.23591 v 60 h 148.21 v 174.76 H 60 v 60 h 148.21 v 174.76 H 60 v 60 h 148.21 z m 60,-565.48 c 0,-50.543 41.125,-91.656 91.668,-91.656 h 480.25 c 50.543,0 91.668,41.113 91.668,91.656 v 565.48 c 0,50.543 -41.125,91.656 -91.668,91.656 l -480.27,-0.004 c -50.543,0 -91.668,-41.113 -91.668,-91.656 v -565.47 z"
       id="path188"
       style="fill:#808080" /></g></svg>
