<?xml version="1.0" encoding="UTF-8"?>
<svg width="1200pt" height="1200pt" version="1.1" viewBox="0 0 1200 1200" xmlns="http://www.w3.org/2000/svg">
 <g>
  <path d="m866.9 349.25c0 28.445-23.059 51.508-51.504 51.508-28.441 0-51.504-23.062-51.504-51.508 0-28.441 23.062-51.504 51.504-51.504 28.445 0 51.504 23.062 51.504 51.504"/>
  <path d="m208.21 882.74c0 83.629 68.039 151.66 151.67 151.66h480.25c83.629 0 151.67-68.027 151.67-151.66v-17.988l148.2 0.003906v-60h-148.21v-174.76h148.21v-60h-148.21v-174.76h148.21v-60h-148.21v-17.988c0-83.629-68.039-151.66-151.67-151.66l-480.25 0.003906c-83.629 0-151.67 68.027-151.67 151.66v17.988l-148.2-0.003906v60h148.21v174.76h-148.21v60h148.21v174.76h-148.21v60h148.21zm60-565.48c0-50.543 41.125-91.656 91.668-91.656h480.25c50.543 0 91.668 41.113 91.668 91.656v565.48c0 50.543-41.125 91.656-91.668 91.656l-480.27-0.003906c-50.543 0-91.668-41.113-91.668-91.656v-565.47z"/>
 </g>
</svg>
